<svg width="33" height="32" viewBox="0 0 33 32" fill="none" xmlns="http://www.w3.org/2000/svg">
<g clip-path="url(#clip0_182_2191)">
<path d="M29.9137 16C29.9137 19.4478 28.5441 22.7544 26.1061 25.1924C23.6681 27.6304 20.3615 29 16.9137 29C13.4659 29 10.1593 27.6304 7.72131 25.1924C5.28334 22.7544 3.9137 19.4478 3.9137 16C3.9137 12.5522 5.28334 9.24558 7.72131 6.80761C10.1593 4.36964 13.4659 3 16.9137 3C20.3615 3 23.6681 4.36964 26.1061 6.80761C28.5441 9.24558 29.9137 12.5522 29.9137 16ZM0.913696 16C0.913696 20.2435 2.59941 24.3131 5.59999 27.3137C8.60057 30.3143 12.6702 32 16.9137 32C21.1572 32 25.2268 30.3143 28.2274 27.3137C31.228 24.3131 32.9137 20.2435 32.9137 16C32.9137 11.7565 31.228 7.68687 28.2274 4.68629C25.2268 1.68571 21.1572 0 16.9137 0C12.6702 0 8.60057 1.68571 5.59999 4.68629C2.59941 7.68687 0.913696 11.7565 0.913696 16ZM15.4137 7.5V16C15.4137 16.5 15.6637 16.9688 16.0824 17.25L22.0824 21.25C22.7699 21.7125 23.7012 21.525 24.1637 20.8312C24.6262 20.1375 24.4387 19.2125 23.7449 18.75L18.4137 15.2V7.5C18.4137 6.66875 17.7449 6 16.9137 6C16.0824 6 15.4137 6.66875 15.4137 7.5Z" fill="#0050D7"/>
</g>
<defs>
<clipPath id="clip0_182_2191">
<rect width="32" height="32" fill="white" transform="translate(0.913696)"/>
</clipPath>
</defs>
</svg>
