<svg width="30" height="32" viewBox="0 0 30 32" fill="none" xmlns="http://www.w3.org/2000/svg">
<g clip-path="url(#clip0_182_2188)">
<path d="M10.9214 0.337614C11.4114 -0.118636 12.1715 -0.112386 12.6615 0.343864C14.3955 1.96261 16.0226 3.70636 17.5429 5.59386C18.2339 4.69386 19.0192 3.71261 19.8673 2.91261C20.3636 2.45011 21.13 2.45011 21.6263 2.91886C23.8 4.98136 25.6407 7.70636 26.9349 10.2939C28.2102 12.8439 29.0583 15.4501 29.0583 17.2876C29.0583 25.2626 22.7886 32.0001 14.986 32.0001C7.09545 32.0001 0.913696 25.2564 0.913696 17.2814C0.913696 14.8814 2.03194 11.9501 3.76585 9.05011C5.5186 6.10636 7.99382 3.03761 10.9214 0.337614ZM15.0928 26.0001C16.6822 26.0001 18.0894 25.5626 19.415 24.6876C22.0598 22.8501 22.7697 19.1751 21.1803 16.2876C20.8976 15.7251 20.1751 15.6876 19.7668 16.1626L18.1837 17.9939C17.769 18.4689 17.0214 18.4564 16.6319 17.9626C15.5954 16.6501 13.7421 14.3064 12.6867 12.9751C12.2909 12.4751 11.537 12.4689 11.135 12.9689C9.01154 15.6251 7.94356 17.3001 7.94356 19.1814C7.94984 23.4626 11.1287 26.0001 15.0928 26.0001Z" fill="#0050D7"/>
</g>
<defs>
<clipPath id="clip0_182_2188">
<rect width="28.1446" height="32" fill="white" transform="translate(0.913696)"/>
</clipPath>
</defs>
</svg>
