<svg width="33" height="32" viewBox="0 0 33 32" fill="none" xmlns="http://www.w3.org/2000/svg">
<path d="M18.2951 1.12487C17.9639 0.437451 17.264 0 16.4953 0C15.7266 0 15.033 0.437451 14.6955 1.12487L10.6772 9.3927L1.70322 10.7176C0.953299 10.83 0.328369 11.355 0.0971449 12.0736C-0.134079 12.7923 0.0533996 13.586 0.59084 14.1172L7.10261 20.5602L5.56528 29.6654C5.4403 30.4153 5.75276 31.1778 6.37144 31.6215C6.99012 32.0652 7.80878 32.1214 8.48371 31.7652L16.5016 27.4844L24.5194 31.7652C25.1943 32.1214 26.013 32.0714 26.6317 31.6215C27.2504 31.1715 27.5628 30.4153 27.4378 29.6654L25.8943 20.5602L32.406 14.1172C32.9435 13.586 33.1372 12.7923 32.8997 12.0736C32.6622 11.355 32.0436 10.83 31.2937 10.7176L22.3134 9.3927L18.2951 1.12487Z" fill="#07A0FF"/>
</svg>
