<svg width="36" height="32" viewBox="0 0 36 32" fill="none" xmlns="http://www.w3.org/2000/svg">
<g clip-path="url(#clip0_182_2194)">
<path d="M17.9506 0C18.5243 0 19.048 0.325 19.2974 0.84375L23.5746 9.675L33.1267 11.0875C33.6878 11.1687 34.1554 11.5625 34.33 12.1062C34.5046 12.65 34.3612 13.2375 33.9621 13.6375L27.035 20.525L28.6686 30.25C28.7621 30.8125 28.5315 31.3813 28.0638 31.7188C27.5962 32.0563 26.9852 32.0938 26.4864 31.825L17.9444 27.25L9.4149 31.8188C8.90987 32.0875 8.29884 32.05 7.83745 31.7125C7.37606 31.375 7.13913 30.8062 7.23265 30.2437L8.86622 20.5187L1.93913 13.6375C1.53385 13.2375 1.39668 12.6438 1.57126 12.1062C1.74584 11.5687 2.21347 11.175 2.77462 11.0875L12.3267 9.675L16.6039 0.84375C16.8595 0.325 17.377 0 17.9506 0ZM17.9506 4.9375L14.6773 11.7C14.459 12.1438 14.0413 12.4563 13.5487 12.5312L6.1727 13.6187L11.5286 18.9375C11.8715 19.2812 12.0336 19.7687 11.9526 20.25L10.6868 27.7313L17.2461 24.2188C17.6888 23.9813 18.2187 23.9813 18.6552 24.2188L25.2144 27.7313L23.955 20.2563C23.8739 19.775 24.0298 19.2875 24.3789 18.9438L29.7348 13.625L22.3588 12.5312C21.8725 12.4563 21.4485 12.15 21.2303 11.7L17.9506 4.9375Z" fill="#0050D7"/>
</g>
<defs>
<clipPath id="clip0_182_2194">
<rect width="35.9137" height="32" fill="white"/>
</clipPath>
</defs>
</svg>
